<?xml version="1.0" encoding="UTF-8"?>
<svg xmlns="http://www.w3.org/2000/svg" xmlns:xlink="http://www.w3.org/1999/xlink" width="150px" height="150px" viewBox="0 0 150 150" version="1.1">
<g id="surface1">
<path style="fill:none;stroke-width:1.5;stroke-linecap:round;stroke-linejoin:miter;stroke:rgb(0%,0%,0%);stroke-opacity:1;stroke-miterlimit:4;" d="M 22.5 11.629687 L 22.5 6 " transform="matrix(3.333333,0,0,3.333333,0,0)"/>
<path style="fill:none;stroke-width:1.5;stroke-linecap:round;stroke-linejoin:miter;stroke:rgb(0%,0%,0%);stroke-opacity:1;stroke-miterlimit:4;" d="M 20.000391 8.000391 L 24.999609 8.000391 " transform="matrix(3.333333,0,0,3.333333,0,0)"/>
<path style="fill-rule:evenodd;fill:rgb(100%,100%,100%);fill-opacity:1;stroke-width:1.5;stroke-linecap:butt;stroke-linejoin:miter;stroke:rgb(0%,0%,0%);stroke-opacity:1;stroke-miterlimit:4;" d="M 22.5 24.999609 C 22.5 24.999609 27 17.499609 25.5 14.499609 C 25.5 14.499609 24.500391 12 22.5 12 C 20.499609 12 19.5 14.499609 19.5 14.499609 C 18 17.499609 22.5 24.999609 22.5 24.999609 " transform="matrix(3.333333,0,0,3.333333,0,0)"/>
<path style="fill-rule:evenodd;fill:rgb(100%,100%,100%);fill-opacity:1;stroke-width:1.5;stroke-linecap:round;stroke-linejoin:round;stroke:rgb(0%,0%,0%);stroke-opacity:1;stroke-miterlimit:4;" d="M 12.500391 36.999609 C 18 40.5 27 40.5 32.499609 36.999609 L 32.499609 30 C 32.499609 30 41.499609 25.5 38.499609 19.5 C 34.5 12.999609 24.999609 15.999609 22.5 23.499609 L 22.5 27 L 22.5 23.499609 C 20.000391 15.999609 10.5 12.999609 6.500391 19.5 C 3.500391 25.5 12.500391 30 12.500391 30 L 12.500391 36.999609 " transform="matrix(3.333333,0,0,3.333333,0,0)"/>
<path style="fill:none;stroke-width:1.5;stroke-linecap:round;stroke-linejoin:round;stroke:rgb(0%,0%,0%);stroke-opacity:1;stroke-miterlimit:4;" d="M 12.500391 30 C 18 27 27 27 32.499609 30 " transform="matrix(3.333333,0,0,3.333333,0,0)"/>
<path style="fill:none;stroke-width:1.5;stroke-linecap:round;stroke-linejoin:round;stroke:rgb(0%,0%,0%);stroke-opacity:1;stroke-miterlimit:4;" d="M 12.500391 33.500391 C 18 30.500391 27 30.500391 32.499609 33.500391 " transform="matrix(3.333333,0,0,3.333333,0,0)"/>
<path style="fill:none;stroke-width:1.5;stroke-linecap:round;stroke-linejoin:round;stroke:rgb(0%,0%,0%);stroke-opacity:1;stroke-miterlimit:4;" d="M 12.500391 36.999609 C 18 33.999609 27 33.999609 32.499609 36.999609 " transform="matrix(3.333333,0,0,3.333333,0,0)"/>
</g>
</svg>
