<?xml version="1.0" encoding="UTF-8"?>
<svg xmlns="http://www.w3.org/2000/svg" xmlns:xlink="http://www.w3.org/1999/xlink" width="150px" height="150px" viewBox="0 0 150 150" version="1.1">
<g id="surface1">
<path style="fill-rule:evenodd;fill:rgb(100%,0%,0%);fill-opacity:1;stroke-width:1.5;stroke-linecap:round;stroke-linejoin:round;stroke:rgb(0%,0%,0%);stroke-opacity:1;stroke-miterlimit:4;" d="M 21.999609 9.999609 C 32.499609 11.000391 38.499609 18 38.000391 39 L 15 39 C 15 30 24.999609 32.499609 23.000391 18 " transform="matrix(3.333333,0,0,3.333333,0,1)"/>
<path style="fill-rule:evenodd;fill:rgb(100%,0%,0%);fill-opacity:1;stroke-width:1.5;stroke-linecap:round;stroke-linejoin:round;stroke:rgb(0%,0%,0%);stroke-opacity:1;stroke-miterlimit:4;" d="M 24 18 C 24.379687 20.909766 18.45 25.369922 15.999609 27 C 12.999609 29.000391 13.180078 31.339453 11.000391 30.999609 C 9.957422 30.059766 12.410156 27.959766 11.000391 27.999609 C 9.999609 27.999609 11.190234 29.230078 9.999609 30 C 9 30 5.996484 30.999609 6 26.000391 C 6 24 12 14.000391 12 14.000391 C 12 14.000391 13.890234 12.099609 14.000391 10.5 C 13.270312 9.50625 13.5 8.499609 13.5 7.5 C 14.499609 6.500391 16.5 9.999609 16.5 9.999609 L 18.500391 9.999609 C 18.500391 9.999609 19.279687 8.007422 21 6.999609 C 21.999609 6.999609 21.999609 9.999609 21.999609 9.999609 " transform="matrix(3.333333,0,0,3.333333,0,1)"/>
<path style="fill-rule:evenodd;fill:rgb(0%,0%,0%);fill-opacity:1;stroke-width:1.5;stroke-linecap:round;stroke-linejoin:round;stroke:rgb(0%,0%,0%);stroke-opacity:1;stroke-miterlimit:4;" d="M 9.500391 25.5 C 9.500391 25.776562 9.276562 26.000391 9 26.000391 C 8.723437 26.000391 8.499609 25.776562 8.499609 25.5 C 8.499609 25.223437 8.723437 24.999609 9 24.999609 C 9.276562 24.999609 9.500391 25.223437 9.500391 25.5 Z M 9.500391 25.5 " transform="matrix(3.333333,0,0,3.333333,0,1)"/>
<path style="fill-rule:evenodd;fill:rgb(0%,0%,0%);fill-opacity:1;stroke-width:1.5;stroke-linecap:round;stroke-linejoin:round;stroke:rgb(0%,0%,0%);stroke-opacity:1;stroke-miterlimit:4;" d="M 15.000176 15.499898 C 14.999515 16.328441 14.775757 17.000267 14.499576 17.000046 C 14.223395 16.999826 13.999892 16.329126 13.999967 15.499568 C 13.999613 14.671611 14.223371 13.999786 14.499552 14.000006 C 14.775733 14.000226 14.999822 14.671942 15.000176 15.499898 Z M 15.000176 15.499898 " transform="matrix(2.886667,1.666667,-1.666667,2.886667,32.31,-16.243333)"/>
</g>
</svg>
