<?xml version="1.0" encoding="UTF-8"?>
<svg xmlns="http://www.w3.org/2000/svg" xmlns:xlink="http://www.w3.org/1999/xlink" width="150px" height="150px" viewBox="0 0 150 150" version="1.1">
<g id="surface1">
<path style="fill-rule:nonzero;fill:rgb(100%,0%,0%);fill-opacity:1;stroke-width:1.5;stroke-linecap:round;stroke-linejoin:miter;stroke:rgb(0%,0%,0%);stroke-opacity:1;stroke-miterlimit:4;" d="M 22.5 9 C 20.289844 9 18.500391 10.789453 18.500391 12.999609 C 18.500391 13.890234 18.789844 14.710547 19.279687 15.379687 C 17.329687 16.5 15.999609 18.589453 15.999609 21 C 15.999609 23.029687 16.939453 24.840234 18.410156 26.029687 C 15.410156 27.090234 11.000391 31.579687 11.000391 39.500391 L 33.999609 39.500391 C 33.999609 31.579687 29.589844 27.090234 26.589844 26.029687 C 28.060547 24.840234 29.000391 23.029687 29.000391 21 C 29.000391 18.589453 27.670312 16.5 25.720312 15.379687 C 26.210156 14.710547 26.499609 13.890234 26.499609 12.999609 C 26.499609 10.789453 24.710156 9 22.5 9 Z M 22.5 9 " transform="matrix(3.333333,0,0,3.333333,0,0)"/>
</g>
</svg>
