<?xml version="1.0" encoding="UTF-8"?>
<svg xmlns="http://www.w3.org/2000/svg" xmlns:xlink="http://www.w3.org/1999/xlink" width="150px" height="150px" viewBox="0 0 150 150" version="1.1">
<g id="surface1">
<path style="fill-rule:nonzero;fill:rgb(100%,0%,0%);fill-opacity:1;stroke-width:1.5;stroke-linecap:butt;stroke-linejoin:round;stroke:rgb(0%,0%,0%);stroke-opacity:1;stroke-miterlimit:4;" d="M 9 26.000391 C 17.499609 24.500391 30 24.500391 36 26.000391 L 38.499609 13.5 L 30.999609 24.999609 L 30.699609 10.899609 L 25.5 24.500391 L 22.5 9.999609 L 19.5 24.500391 L 14.300391 10.899609 L 14.000391 24.999609 L 6.500391 13.5 Z M 9 26.000391 " transform="matrix(3.333333,0,0,3.333333,0,0)"/>
<path style="fill-rule:nonzero;fill:rgb(100%,0%,0%);fill-opacity:1;stroke-width:1.5;stroke-linecap:butt;stroke-linejoin:round;stroke:rgb(0%,0%,0%);stroke-opacity:1;stroke-miterlimit:4;" d="M 9 26.000391 C 9 27.999609 10.5 27.999609 11.499609 30 C 12.500391 31.5 12.500391 30.999609 12 33.500391 C 10.5 34.5 11.000391 36 11.000391 36 C 9.500391 37.5 11.000391 38.499609 11.000391 38.499609 C 17.499609 39.500391 27.500391 39.500391 33.999609 38.499609 C 33.999609 38.499609 35.499609 37.5 33.999609 36 C 33.999609 36 34.5 34.5 33 33.500391 C 32.499609 30.999609 32.499609 31.5 33.500391 30 C 34.5 27.999609 36 27.999609 36 26.000391 C 27.500391 24.500391 17.499609 24.500391 9 26.000391 Z M 9 26.000391 " transform="matrix(3.333333,0,0,3.333333,0,0)"/>
<path style="fill:none;stroke-width:1.5;stroke-linecap:butt;stroke-linejoin:round;stroke:rgb(0%,0%,0%);stroke-opacity:1;stroke-miterlimit:4;" d="M 11.499609 30 C 15 29.000391 30 29.000391 33.500391 30 " transform="matrix(3.333333,0,0,3.333333,0,0)"/>
<path style="fill:none;stroke-width:1.5;stroke-linecap:butt;stroke-linejoin:round;stroke:rgb(0%,0%,0%);stroke-opacity:1;stroke-miterlimit:4;" d="M 12 33.500391 C 18 32.499609 27 32.499609 33 33.500391 " transform="matrix(3.333333,0,0,3.333333,0,0)"/>
<path style="fill-rule:nonzero;fill:rgb(100%,0%,0%);fill-opacity:1;stroke-width:1.5;stroke-linecap:butt;stroke-linejoin:round;stroke:rgb(0%,0%,0%);stroke-opacity:1;stroke-miterlimit:4;" d="M 8.000391 12 C 8.000391 13.105078 7.105078 14.000391 6 14.000391 C 4.894922 14.000391 3.999609 13.105078 3.999609 12 C 3.999609 10.894922 4.894922 9.999609 6 9.999609 C 7.105078 9.999609 8.000391 10.894922 8.000391 12 Z M 8.000391 12 " transform="matrix(3.333333,0,0,3.333333,0,0)"/>
<path style="fill-rule:nonzero;fill:rgb(100%,0%,0%);fill-opacity:1;stroke-width:1.5;stroke-linecap:butt;stroke-linejoin:round;stroke:rgb(0%,0%,0%);stroke-opacity:1;stroke-miterlimit:4;" d="M 15.999609 9 C 15.999609 10.105078 15.104297 11.000391 14.000391 11.000391 C 12.895312 11.000391 12 10.105078 12 9 C 12 7.894922 12.895312 6.999609 14.000391 6.999609 C 15.104297 6.999609 15.999609 7.894922 15.999609 9 Z M 15.999609 9 " transform="matrix(3.333333,0,0,3.333333,0,0)"/>
<path style="fill-rule:nonzero;fill:rgb(100%,0%,0%);fill-opacity:1;stroke-width:1.5;stroke-linecap:butt;stroke-linejoin:round;stroke:rgb(0%,0%,0%);stroke-opacity:1;stroke-miterlimit:4;" d="M 24.500391 8.000391 C 24.500391 9.104297 23.605078 9.999609 22.5 9.999609 C 21.394922 9.999609 20.499609 9.104297 20.499609 8.000391 C 20.499609 6.895313 21.394922 6 22.5 6 C 23.605078 6 24.500391 6.895313 24.500391 8.000391 Z M 24.500391 8.000391 " transform="matrix(3.333333,0,0,3.333333,0,0)"/>
<path style="fill-rule:nonzero;fill:rgb(100%,0%,0%);fill-opacity:1;stroke-width:1.5;stroke-linecap:butt;stroke-linejoin:round;stroke:rgb(0%,0%,0%);stroke-opacity:1;stroke-miterlimit:4;" d="M 33 9 C 33 10.105078 32.104687 11.000391 30.999609 11.000391 C 29.895703 11.000391 29.000391 10.105078 29.000391 9 C 29.000391 7.894922 29.895703 6.999609 30.999609 6.999609 C 32.104687 6.999609 33 7.894922 33 9 Z M 33 9 " transform="matrix(3.333333,0,0,3.333333,0,0)"/>
<path style="fill-rule:nonzero;fill:rgb(100%,0%,0%);fill-opacity:1;stroke-width:1.5;stroke-linecap:butt;stroke-linejoin:round;stroke:rgb(0%,0%,0%);stroke-opacity:1;stroke-miterlimit:4;" d="M 41.000391 12 C 41.000391 13.105078 40.105078 14.000391 39 14.000391 C 37.894922 14.000391 36.999609 13.105078 36.999609 12 C 36.999609 10.894922 37.894922 9.999609 39 9.999609 C 40.105078 9.999609 41.000391 10.894922 41.000391 12 Z M 41.000391 12 " transform="matrix(3.333333,0,0,3.333333,0,0)"/>
</g>
</svg>
